<?xml version="1.0" standalone="no"?>
<!DOCTYPE svg PUBLIC "-//W3C//DTD SVG 20010904//EN"
 "http://www.w3.org/TR/2001/REC-SVG-20010904/DTD/svg10.dtd">
<svg version="1.0" xmlns="http://www.w3.org/2000/svg"
 width="192.000000pt" height="192.000000pt" viewBox="0 0 192.000000 192.000000"
 preserveAspectRatio="xMidYMid meet">

<g transform="translate(0.000000,192.000000) scale(0.100000,-0.100000)"
fill="#000000" stroke="none">
<path d="M217 1298 c-84 -48 -87 -51 -74 -72 7 -11 80 -138 163 -280 172 -300
216 -354 307 -381 73 -21 140 -9 223 41 91 54 89 49 38 136 l-44 77 -47 -24
c-53 -29 -82 -31 -122 -10 -33 17 -49 41 -216 330 -69 121 -130 223 -133 227
-4 4 -47 -16 -95 -44z"/>
<path d="M638 1336 c-36 -13 -106 -51 -142 -78 -18 -14 -17 -18 24 -89 23 -41
43 -76 45 -78 2 -1 29 9 59 24 49 24 59 26 90 15 20 -6 46 -24 58 -39 13 -15
88 -141 168 -279 80 -139 148 -252 151 -252 14 0 169 92 169 100 0 5 -71 131
-157 282 -206 357 -255 409 -388 408 -22 -1 -56 -7 -77 -14z"/>
<path d="M1177 1335 c-48 -18 -159 -85 -155 -94 2 -3 22 -41 46 -84 l44 -77
27 20 c66 46 117 46 168 -2 12 -11 89 -137 170 -279 81 -142 152 -258 157
-259 7 0 158 82 174 95 3 3 -285 501 -319 551 -36 52 -102 112 -145 130 -42
18 -117 17 -167 -1z"/>
</g>
</svg>
