<?xml version="1.0" standalone="no"?>
<!DOCTYPE svg PUBLIC "-//W3C//DTD SVG 20010904//EN"
 "http://www.w3.org/TR/2001/REC-SVG-20010904/DTD/svg10.dtd">
<svg version="1.0" xmlns="http://www.w3.org/2000/svg"
 width="1585.000000pt" height="629.000000pt" viewBox="0 0 1585.000000 629.000000"
 preserveAspectRatio="xMidYMid meet">

<g transform="translate(0.000000,629.000000) scale(0.100000,-0.100000)"
fill="#000000" stroke="none">
<path d="M5202 3533 c5 -461 6 -492 26 -567 37 -135 91 -203 202 -255 51 -24
65 -26 205 -26 l150 0 0 138 0 138 -82 2 c-96 3 -125 18 -160 87 -23 44 -23
47 -23 507 l0 463 -161 0 -161 0 4 -487z"/>
<path d="M2395 3864 c-72 -41 -129 -79 -127 -85 5 -18 423 -741 464 -801 54
-81 131 -153 197 -185 48 -24 68 -28 141 -27 102 0 162 21 277 96 43 28 80 52
82 54 3 3 -120 224 -134 242 -1 1 -28 -13 -60 -33 -100 -60 -160 -57 -228 13
-20 20 -133 206 -253 412 -119 206 -219 378 -223 382 -3 4 -65 -26 -136 -68z"/>
<path d="M3065 3933 c-71 -15 -204 -83 -267 -135 l-27 -23 64 -109 c35 -60 67
-112 72 -117 4 -4 32 7 61 26 30 18 71 37 93 40 55 10 119 -23 162 -83 18 -26
124 -204 235 -397 111 -192 206 -356 211 -363 6 -11 36 2 132 58 68 39 128 75
132 79 10 9 -421 758 -488 848 -104 141 -244 206 -380 176z"/>
<path d="M3865 3933 c-71 -15 -205 -83 -267 -135 l-26 -23 63 -109 c36 -60 68
-113 72 -117 4 -4 32 7 61 26 73 46 120 53 176 25 25 -11 56 -36 70 -55 14
-18 123 -201 241 -406 118 -205 217 -375 219 -377 4 -4 243 132 259 147 10 9
-421 758 -488 848 -104 141 -244 206 -380 176z"/>
<path d="M6295 3670 c-200 -28 -336 -150 -370 -332 l-7 -36 64 -6 c34 -3 102
-7 151 -10 82 -5 87 -4 87 15 0 34 39 98 70 114 33 17 106 20 144 5 42 -16 66
-66 66 -137 l0 -63 -104 0 c-194 0 -344 -32 -424 -91 -109 -80 -124 -257 -31
-363 56 -64 122 -89 244 -94 85 -3 109 -1 159 18 66 25 132 81 162 135 10 19
21 35 24 35 4 0 15 -37 26 -82 l20 -83 117 -3 118 -3 -3 358 -3 358 -26 55
c-29 61 -83 120 -144 156 -78 45 -229 69 -340 54z m205 -624 c0 -40 -33 -92
-77 -122 -57 -38 -156 -42 -210 -8 -33 21 -32 82 2 114 31 29 114 48 213 49
l72 1 0 -34z"/>
<path d="M10152 3669 c-194 -29 -328 -148 -361 -322 l-8 -46 61 -5 c34 -3 100
-7 147 -10 l87 -5 11 42 c6 24 23 55 41 72 26 25 40 30 95 33 63 4 66 3 100
-31 33 -33 35 -38 35 -106 l0 -71 -107 0 c-326 -1 -489 -84 -510 -259 -7 -62
17 -145 57 -193 50 -60 127 -91 242 -96 156 -7 250 35 319 140 l37 58 22 -90
22 -90 120 0 119 0 -3 343 c-4 386 -8 407 -78 496 -22 27 -60 62 -85 77 -96
56 -240 81 -363 63z m208 -626 c0 -87 -77 -146 -192 -147 -57 -1 -70 2 -92 23
-43 40 -31 97 25 127 42 21 100 32 187 33 l72 1 0 -37z"/>
<path d="M12202 3669 c-205 -30 -344 -162 -388 -367 -39 -188 8 -376 126 -493
95 -96 208 -139 360 -139 147 0 264 43 350 130 46 45 100 134 100 163 0 15
-35 21 -191 33 -82 6 -87 6 -93 -14 -4 -12 -23 -31 -43 -43 -74 -46 -185 -42
-251 8 -31 24 -71 91 -72 121 0 9 73 12 330 12 l330 0 0 93 c0 156 -38 261
-128 358 -68 74 -166 125 -267 139 -79 11 -77 11 -163 -1z m164 -248 c48 -22
91 -73 100 -119 l7 -32 -187 0 c-137 0 -186 3 -186 12 0 6 9 31 21 55 44 90
151 127 245 84z"/>
<path d="M8623 3652 c-67 -24 -118 -64 -154 -120 l-28 -45 -3 84 -3 84 -157 3
-158 3 0 -486 0 -485 160 0 160 0 0 288 0 288 25 51 c38 76 115 104 185 68 62
-32 65 -48 68 -387 l3 -308 144 0 144 0 3 288 c3 270 4 290 25 334 36 78 120
111 192 73 57 -29 61 -52 61 -389 l0 -306 161 0 160 0 -3 378 c-3 371 -3 378
-27 429 -52 117 -167 181 -301 170 -110 -9 -187 -55 -248 -147 l-40 -60 -12
34 c-15 47 -84 122 -134 148 -58 29 -156 34 -223 10z"/>
<path d="M13454 3660 c-95 -19 -169 -74 -218 -160 l-26 -45 0 103 0 102 -155
0 -155 0 0 -485 0 -485 154 0 154 0 4 248 c3 231 5 250 26 297 49 107 103 137
255 143 l108 4 -3 142 -3 141 -50 2 c-27 1 -69 -3 -91 -7z"/>
<path d="M6977 3653 c-4 -3 -7 -151 -7 -327 0 -409 12 -466 112 -563 82 -80
199 -109 316 -79 85 21 146 65 193 139 l39 60 0 -96 0 -97 155 0 155 0 0 485
0 485 -155 0 -155 0 0 -255 c0 -143 -5 -276 -11 -304 -20 -97 -77 -152 -161
-158 -69 -5 -114 19 -148 78 -25 44 -25 45 -28 342 l-4 297 -147 0 c-81 0
-151 -3 -154 -7z"/>
<path d="M10713 3643 c2 -10 95 -237 206 -506 198 -479 201 -487 185 -513 -10
-14 -35 -35 -58 -46 -35 -18 -57 -21 -158 -20 l-118 1 0 -138 0 -139 106 -7
c123 -9 254 5 319 34 62 27 126 97 168 183 30 62 437 1143 437 1162 0 3 -76 6
-170 6 l-169 0 -11 -37 c-5 -21 -47 -171 -91 -333 -45 -162 -84 -298 -88 -302
-4 -4 -51 137 -106 315 -54 177 -102 330 -107 340 -8 15 -27 17 -180 17 -157
0 -170 -1 -165 -17z"/>
<path d="M2452 2506 c-36 -33 -37 -37 -37 -100 0 -61 2 -68 33 -98 29 -29 39
-33 87 -33 49 0 58 4 87 33 32 32 32 33 13 48 -17 13 -21 12 -40 -13 -16 -19
-31 -26 -55 -26 -88 0 -110 140 -28 174 32 13 74 1 84 -25 5 -12 11 -13 29 -4
20 9 22 14 14 29 -14 28 -62 49 -109 49 -32 0 -48 -7 -78 -34z"/>
<path d="M2788 2525 c-58 -33 -79 -131 -43 -193 34 -56 115 -78 174 -48 78 41
92 164 26 226 -32 30 -117 38 -157 15z m115 -45 c76 -60 12 -195 -75 -159 -36
15 -48 37 -48 89 0 76 67 114 123 70z"/>
<path d="M3084 2527 c-2 -7 -3 -67 -2 -133 3 -114 4 -119 25 -122 21 -3 22 0
25 93 l3 96 64 -96 c92 -136 101 -133 101 40 0 127 -1 135 -20 135 -17 0 -19
-8 -22 -87 l-3 -88 -60 87 c-45 66 -66 87 -83 88 -12 0 -25 -6 -28 -13z"/>
<path d="M3420 2405 l0 -135 90 0 c89 0 90 0 90 25 0 24 -2 25 -65 25 l-65 0
0 35 0 35 60 0 c53 0 60 2 60 20 0 18 -7 20 -60 20 -60 0 -60 0 -60 30 0 29 1
29 63 32 56 3 62 5 65 26 3 21 1 22 -87 22 l-91 0 0 -135z"/>
<path d="M3726 2508 c-83 -83 -44 -223 67 -235 50 -6 100 15 118 49 10 18 8
24 -7 35 -16 12 -21 10 -39 -14 -45 -56 -121 -24 -132 55 -5 36 -2 45 25 72
37 36 61 38 100 5 25 -21 32 -22 47 -11 16 12 16 14 -7 41 -20 23 -35 29 -81
33 -54 4 -58 3 -91 -30z"/>
<path d="M3984 2525 c-10 -24 5 -35 47 -35 l39 0 0 -111 c0 -109 0 -110 23
-107 21 3 22 8 25 110 l3 107 37 3 c30 2 38 7 40 26 3 22 2 22 -103 22 -83 0
-107 -3 -111 -15z"/>
<path d="M4287 2420 c-26 -67 -47 -128 -47 -136 0 -28 41 -15 51 16 10 28 14
30 65 30 52 0 56 -2 65 -30 8 -22 17 -30 35 -30 13 0 24 3 24 8 0 4 -22 64
-48 132 -43 111 -51 125 -73 128 -24 3 -29 -4 -72 -118z m103 -37 c0 -8 -14
-13 -35 -13 -19 0 -35 1 -35 3 0 2 8 26 17 53 l17 49 18 -40 c9 -22 18 -46 18
-52z"/>
<path d="M4570 2406 c0 -128 1 -136 20 -136 18 0 20 8 22 93 l3 92 36 -90 c49
-120 61 -120 109 0 l35 89 3 -92 c3 -90 4 -93 25 -90 21 3 22 6 22 133 l0 130
-31 3 c-33 3 -31 6 -94 -163 -12 -30 -12 -29 -50 65 -35 89 -40 95 -69 98
l-31 3 0 -135z"/>
<path d="M5011 2527 c-93 -47 -87 -207 9 -247 45 -18 107 -7 141 26 49 47 57
114 20 183 -25 45 -116 66 -170 38z m114 -52 c19 -18 25 -35 25 -65 0 -52 -12
-74 -48 -89 -87 -36 -151 99 -75 159 34 27 69 25 98 -5z"/>
<path d="M5315 2515 c-49 -48 -23 -104 57 -125 68 -19 81 -35 51 -65 -19 -20
-67 -14 -95 12 -17 15 -19 15 -32 -3 -18 -23 -12 -32 30 -50 56 -23 101 -18
135 15 16 16 29 38 29 49 0 33 -37 69 -82 81 -62 16 -76 26 -62 48 15 24 50
28 80 8 20 -13 28 -14 40 -4 21 17 17 27 -16 44 -46 24 -106 20 -135 -10z"/>
<path d="M5756 2508 c-82 -82 -45 -221 64 -235 48 -7 97 14 119 49 12 19 11
23 -5 35 -16 12 -21 10 -39 -14 -47 -57 -135 -16 -135 63 0 26 8 44 29 65 36
36 64 37 97 4 23 -23 27 -24 45 -11 20 13 20 14 -4 41 -19 23 -34 29 -80 33
-54 4 -58 3 -91 -30z"/>
<path d="M6092 2527 c-40 -23 -62 -67 -62 -125 0 -45 4 -57 33 -88 67 -73 184
-51 216 42 18 52 8 106 -28 146 -23 26 -36 32 -82 35 -33 2 -63 -2 -77 -10z
m120 -57 c27 -27 30 -36 25 -71 -9 -67 -61 -103 -110 -78 -35 19 -46 41 -47
87 0 85 74 119 132 62z"/>
<path d="M6390 2405 c0 -128 1 -135 20 -135 18 0 20 8 22 97 l3 97 53 -81 c62
-94 85 -118 107 -109 13 5 15 25 13 133 -3 123 -4 128 -25 131 -21 3 -22 0
-25 -85 l-3 -88 -60 87 c-45 67 -65 88 -82 88 -23 0 -23 -2 -23 -135z"/>
<path d="M6822 2518 c2 -19 10 -24 40 -26 l37 -3 3 -107 c3 -102 4 -107 26
-110 22 -3 22 -2 22 107 l0 111 40 0 c36 0 40 3 40 25 l0 25 -106 0 c-104 0
-105 0 -102 -22z"/>
<path d="M7120 2446 c0 -111 9 -140 49 -161 48 -24 96 -19 133 14 33 29 33 30
36 135 l4 106 -26 0 -26 0 0 -91 c0 -50 -4 -99 -10 -109 -14 -26 -57 -34 -86
-15 -23 15 -24 21 -24 115 0 100 0 100 -25 100 -25 0 -25 0 -25 -94z"/>
<path d="M7641 2527 c-63 -32 -88 -137 -47 -200 48 -72 170 -75 207 -5 10 18
8 24 -6 35 -16 11 -20 10 -33 -8 -36 -51 -103 -43 -128 17 -19 45 -11 87 23
114 34 26 55 25 91 -5 26 -22 31 -23 48 -10 18 14 18 16 -14 45 -25 24 -41 30
-75 30 -23 0 -53 -6 -66 -13z"/>
<path d="M7905 2528 c-3 -8 -4 -68 -3 -134 3 -115 4 -119 26 -122 20 -3 22 0
22 47 0 49 1 51 28 51 24 0 33 -8 56 -50 21 -39 33 -50 52 -50 30 0 30 4 2 57
l-22 42 22 23 c35 38 38 79 9 114 -23 27 -31 29 -106 32 -63 3 -82 1 -86 -10z
m143 -44 c45 -32 15 -74 -54 -74 l-44 0 0 45 0 45 38 0 c21 0 48 -7 60 -16z"/>
<path d="M8220 2405 l0 -135 90 0 c89 0 90 0 90 25 0 24 -2 25 -65 25 l-65 0
0 35 0 35 60 0 c53 0 60 2 60 20 0 18 -7 20 -60 20 -60 0 -60 0 -60 30 0 29 1
29 63 32 56 3 62 5 65 26 3 21 1 22 -87 22 l-91 0 0 -135z"/>
<path d="M8526 2508 c-82 -82 -45 -221 64 -235 48 -7 97 14 119 49 12 19 11
23 -5 35 -16 12 -21 10 -39 -14 -47 -57 -135 -16 -135 63 0 26 8 44 29 65 36
36 64 37 97 4 23 -23 27 -24 45 -11 20 13 20 14 -4 41 -19 23 -34 29 -80 33
-54 4 -58 3 -91 -30z"/>
<path d="M8812 2408 c3 -129 4 -133 26 -136 22 -3 22 -3 22 132 l0 136 -25 0
-26 0 3 -132z"/>
<path d="M8974 2527 c-2 -7 -3 -67 -2 -133 3 -115 4 -119 26 -122 21 -3 22 -1
23 90 l0 93 37 -92 c48 -120 59 -121 104 -8 l33 85 5 -83 c5 -76 7 -82 28 -85
22 -3 22 -3 22 133 l0 136 -31 -3 c-29 -3 -34 -9 -69 -97 l-37 -94 -38 97
c-36 90 -40 96 -67 96 -16 0 -31 -6 -34 -13z"/>
<path d="M9364 2527 c-2 -7 -3 -67 -2 -133 3 -115 4 -119 26 -122 22 -3 22 -3
22 132 0 130 -1 136 -20 136 -11 0 -23 -6 -26 -13z"/>
<path d="M9530 2405 l0 -135 90 0 c89 0 90 0 90 25 0 24 -2 25 -65 25 l-65 0
0 35 0 35 60 0 c53 0 60 2 60 20 0 18 -7 20 -60 20 -60 0 -60 0 -60 30 0 29 1
29 63 32 56 3 62 5 65 26 3 21 1 22 -87 22 l-91 0 0 -135z"/>
<path d="M9812 2408 c3 -129 4 -133 26 -136 22 -3 22 -1 22 95 l0 98 65 -98
c46 -68 71 -97 85 -97 19 0 20 7 20 136 0 135 0 135 -22 132 -22 -3 -23 -9
-26 -86 l-3 -84 -58 84 c-45 65 -63 84 -85 86 l-27 3 3 -133z"/>
<path d="M10120 2515 c0 -22 4 -25 40 -25 l40 0 0 -111 c0 -109 0 -110 23
-107 21 3 22 8 25 111 l3 107 39 0 c36 0 40 3 40 25 l0 25 -105 0 -105 0 0
-25z"/>
<path d="M10461 2527 c-59 -30 -85 -113 -58 -180 36 -85 150 -103 214 -33 28
31 33 43 33 86 0 62 -20 105 -60 125 -35 18 -96 19 -129 2z m114 -52 c19 -18
25 -35 25 -67 -1 -121 -141 -129 -157 -9 -5 35 -2 44 25 71 37 37 74 39 107 5z"/>
</g>
</svg>
